# xmcd CD database file
#
# Track frame offsets:
#	150
#	62946
#	102064
#
# Disc length: 2778 seconds
#
# Revision: 0
# Processed by: cddbd v1.5.2PL0 Copyright (c) Steve Scherf et al.
# Submitted via: CDex 1.70beta2
#
DISCID=200ad803
DTITLE=Dave Liebman - Lookaut Farm
DYEAR=1973
DGENRE=Jazz
TTITLE0=Pablo´s Story
TTITLE1=Sam´s Float
TTITLE2=M. D./ Lookout Farm
EXTD=YEAR: 1973
EXTT0=
EXTT1=
EXTT2=
PLAYORDER=
